<svg width="35" height="59" viewBox="0 0 35 59" fill="none" xmlns="http://www.w3.org/2000/svg">
<path d="M31.2988 42.5078C29.9805 44.0866 28.1169 45.3154 25.708 46.1943C23.2992 47.057 20.6299 47.4883 17.7002 47.4883C14.624 47.4883 11.9222 46.821 9.59473 45.4863C7.28353 44.1354 5.49316 42.1823 4.22363 39.627C2.97038 37.0716 2.32747 34.0687 2.29492 30.6182V28.2012C2.29492 24.653 2.889 21.585 4.07715 18.9971C5.28158 16.3929 7.00684 14.4072 9.25293 13.04C11.5153 11.6566 14.1602 10.9648 17.1875 10.9648C21.403 10.9648 24.6989 11.974 27.0752 13.9922C29.4515 15.9941 30.8594 18.9157 31.2988 22.7568H24.1699C23.8444 20.7223 23.1201 19.2331 21.9971 18.2891C20.8903 17.3451 19.3604 16.873 17.4072 16.873C14.917 16.873 13.0208 17.8089 11.7188 19.6807C10.4167 21.5524 9.75749 24.3356 9.74121 28.0303V30.3008C9.74121 34.028 10.4492 36.8438 11.8652 38.748C13.2812 40.6523 15.3564 41.6045 18.0908 41.6045C20.8415 41.6045 22.8027 41.0186 23.9746 39.8467V33.7188H17.3096V28.3232H31.2988V42.5078Z" fill="white"/>
</svg>
