<svg width="1920" height="1155" viewBox="0 0 1920 1155" fill="none" xmlns="http://www.w3.org/2000/svg">
<path d="M181.366 762.083C332.701 979.015 631.241 1032.19 848.174 880.857V880.857C1065.11 729.522 1118.28 430.982 966.947 214.049L478.581 -486.001L-307 62.0334L181.366 762.083Z" fill="url(#paint0_linear)" fill-opacity="0.05"/>
<path fill-rule="evenodd" clip-rule="evenodd" d="M279.312 738.001C404.46 911.375 646.037 952.873 822.056 830.08C889.839 782.793 938.115 717.969 965.03 646.001H1066.96C1070.28 646.001 1072.96 643.315 1072.96 640.001C1072.96 636.687 1070.28 634.001 1066.96 634.001H969.298C970.195 631.343 971.063 628.676 971.903 626.001H1054.96C1058.28 626.001 1060.96 623.315 1060.96 620.001C1060.96 616.687 1058.28 614.001 1054.96 614.001H975.462C976.205 611.341 976.92 608.674 977.607 606.001H1079.96C1085.49 606.001 1089.96 601.524 1089.96 596.001C1089.96 590.478 1085.49 586.001 1079.96 586.001H982.194C1002.7 484.545 983.294 375.198 919.396 283.603L792.009 101.001H852.964C856.278 101.001 858.964 98.3145 858.964 95.0008C858.964 91.6871 856.278 89.0008 852.964 89.0008H783.638L778.057 81.0008H840.964C844.278 81.0008 846.964 78.3145 846.964 75.0008C846.964 71.6871 844.278 69.0008 840.964 69.0008H769.686L764.105 61.0008H865.964C871.487 61.0008 875.964 56.5237 875.964 51.0008C875.964 45.478 871.487 41.0008 865.964 41.0008H750.152L413.901 -440.999L-229.916 8.13811L237.391 678.001H144.964C139.441 678.001 134.964 682.478 134.964 688.001C134.964 693.524 139.441 698.001 144.964 698.001H251.344L256.924 706.001H111.964C108.65 706.001 105.964 708.687 105.964 712.001C105.964 715.315 108.65 718.001 111.964 718.001H265.296L270.877 726.001H178.964C175.65 726.001 172.964 728.687 172.964 732.001C172.964 735.315 175.65 738.001 178.964 738.001H279.312Z" fill="url(#paint1_linear)"/>
<path fill-rule="evenodd" clip-rule="evenodd" d="M2210.96 244H1337.96C1315.32 244 1296.96 262.356 1296.96 285C1296.96 307.644 1315.32 326 1337.96 326H2210.96V244ZM2249.96 352H1376.96C1354.32 352 1335.96 370.356 1335.96 393C1335.96 415.644 1354.32 434 1376.96 434H2249.96V352ZM1425.96 477H2298.96V559H1425.96C1403.32 559 1384.96 540.644 1384.96 518C1384.96 495.356 1403.32 477 1425.96 477Z" fill="#23DAE6" fill-opacity="0.09"/>
<defs>
<linearGradient id="paint0_linear" x1="848.174" y1="880.857" x2="85.7905" y2="-211.984" gradientUnits="userSpaceOnUse">
<stop stop-color="#23DAE6"/>
<stop offset="1" stop-color="#7B20D1"/>
</linearGradient>
<linearGradient id="paint1_linear" x1="430.024" y1="-440.999" x2="430.024" y2="900.706" gradientUnits="userSpaceOnUse">
<stop offset="0.138122" stop-color="#6D23E6"/>
<stop offset="1" stop-color="#23DAE6"/>
</linearGradient>
</defs>
</svg>
