<svg width="1920" height="1155" viewBox="0 0 1920 1155" fill="none" xmlns="http://www.w3.org/2000/svg">
<path d="M1810.6 762.083C1659.26 979.015 1360.72 1032.19 1143.79 880.857C926.858 729.522 873.682 430.982 1025.02 214.049L1513.38 -486.001L2298.96 62.0334L1810.6 762.083Z" fill="url(#paint0_linear)" fill-opacity="0.05"/>
<path fill-rule="evenodd" clip-rule="evenodd" d="M1712.65 738.001C1587.5 911.375 1345.93 952.873 1169.91 830.08C1102.12 782.793 1053.85 717.969 1026.93 646.001H925C921.686 646.001 919 643.315 919 640.001C919 636.687 921.686 634.001 925 634.001H1022.67C1021.77 631.343 1020.9 628.676 1020.06 626.001H937C933.686 626.001 931 623.315 931 620.001C931 616.687 933.686 614.001 937 614.001H1016.5C1015.76 611.341 1015.04 608.674 1014.36 606.001H912C906.477 606.001 902 601.524 902 596.001C902 590.478 906.477 586.001 912 586.001H1009.77C989.26 484.545 1008.67 375.198 1072.57 283.603L1199.95 101.001H1139C1135.69 101.001 1133 98.3145 1133 95.0008C1133 91.6871 1135.69 89.0008 1139 89.0008H1208.33L1213.91 81.0008H1151C1147.69 81.0008 1145 78.3145 1145 75.0008C1145 71.6871 1147.69 69.0008 1151 69.0008H1222.28L1227.86 61.0008H1126C1120.48 61.0008 1116 56.5237 1116 51.0008C1116 45.478 1120.48 41.0008 1126 41.0008H1241.81L1578.06 -440.999L2221.88 8.13812L1754.57 678.001H1847C1852.52 678.001 1857 682.478 1857 688.001C1857 693.524 1852.52 698.001 1847 698.001H1740.62L1735.04 706.001H1880C1883.31 706.001 1886 708.687 1886 712.001C1886 715.315 1883.31 718.001 1880 718.001H1726.67L1721.09 726.001H1813C1816.31 726.001 1819 728.687 1819 732.001C1819 735.315 1816.31 738.001 1813 738.001H1712.65Z" fill="url(#paint1_linear)"/>
<path fill-rule="evenodd" clip-rule="evenodd" d="M-219 244H654C676.644 244 695 262.356 695 285C695 307.644 676.644 326 654 326H-219V244ZM-258 352H615C637.644 352 656 370.356 656 393C656 415.644 637.644 434 615 434H-258V352ZM566 477H-307V559H566C588.644 559 607 540.644 607 518C607 495.356 588.644 477 566 477Z" fill="#23DAE6" fill-opacity="0.09"/>
<defs>
<linearGradient id="paint0_linear" x1="1143.79" y1="880.857" x2="1906.17" y2="-211.984" gradientUnits="userSpaceOnUse">
<stop stop-color="#23DAE6"/>
<stop offset="1" stop-color="#7B20D1"/>
</linearGradient>
<linearGradient id="paint1_linear" x1="1561.94" y1="-440.999" x2="1561.94" y2="900.706" gradientUnits="userSpaceOnUse">
<stop offset="0.138122" stop-color="#6D23E6"/>
<stop offset="1" stop-color="#23DAE6"/>
</linearGradient>
</defs>
</svg>
