<svg width="1920" height="1454" viewBox="0 0 1920 1454" fill="none" xmlns="http://www.w3.org/2000/svg">
<path fill-rule="evenodd" clip-rule="evenodd" d="M613.68 216H0V278.641H613.68C630.977 278.641 645 264.618 645 247.32C645 230.023 630.977 216 613.68 216ZM468.68 287.359H0V350H468.68C485.977 350 500 335.977 500 318.68C500 301.382 485.977 287.359 468.68 287.359Z" fill="url(#paint0_linear)" fill-opacity="0.1"/>
<path fill-rule="evenodd" clip-rule="evenodd" d="M613.68 1031H0V1093.64H613.68C630.977 1093.64 645 1079.62 645 1062.32C645 1045.02 630.977 1031 613.68 1031ZM468.68 1102.36H0V1165H468.68C485.977 1165 500 1150.98 500 1133.68C500 1116.38 485.977 1102.36 468.68 1102.36Z" fill="url(#paint1_linear)" fill-opacity="0.1"/>
<path fill-rule="evenodd" clip-rule="evenodd" d="M1306.32 563H1920V625.641H1306.32C1289.02 625.641 1275 611.618 1275 594.32C1275 577.023 1289.02 563 1306.32 563ZM1451.32 634.359H1920V697H1451.32C1434.02 697 1420 682.977 1420 665.68C1420 648.382 1434.02 634.359 1451.32 634.359Z" fill="url(#paint2_linear)" fill-opacity="0.1"/>
<path fill-rule="evenodd" clip-rule="evenodd" d="M138.5 890C136.015 890 134 892.015 134 894.5C134 896.985 136.015 899 138.5 899H348.5C350.985 899 353 896.985 353 894.5C353 892.015 350.985 890 348.5 890H138.5ZM151.5 905C149.015 905 147 907.015 147 909.5C147 911.985 149.015 914 151.5 914H361.5C363.985 914 366 911.985 366 909.5C366 907.015 363.985 905 361.5 905H151.5ZM160 924.5C160 922.015 162.015 920 164.5 920H375.5C377.985 920 380 922.015 380 924.5C380 926.985 377.985 929 375.5 929H164.5C162.015 929 160 926.985 160 924.5ZM178.5 935C176.015 935 174 937.015 174 939.5C174 941.985 176.015 944 178.5 944H388.5C390.985 944 393 941.985 393 939.5C393 937.015 390.985 935 388.5 935H178.5Z" fill="url(#paint3_linear)" fill-opacity="0.1"/>
<path fill-rule="evenodd" clip-rule="evenodd" d="M1570.5 1449C1570.5 1451.49 1572.51 1453.5 1575 1453.5C1577.49 1453.5 1579.5 1451.49 1579.5 1449V1239C1579.5 1236.51 1577.49 1234.5 1575 1234.5C1572.51 1234.5 1570.5 1236.51 1570.5 1239V1449ZM1585.5 1436C1585.5 1438.49 1587.51 1440.5 1590 1440.5C1592.49 1440.5 1594.5 1438.49 1594.5 1436V1226C1594.5 1223.51 1592.49 1221.5 1590 1221.5C1587.51 1221.5 1585.5 1223.51 1585.5 1226V1436ZM1605 1427.5C1602.51 1427.5 1600.5 1425.49 1600.5 1423V1212C1600.5 1209.51 1602.51 1207.5 1605 1207.5C1607.49 1207.5 1609.5 1209.51 1609.5 1212V1423C1609.5 1425.49 1607.49 1427.5 1605 1427.5ZM1615.5 1409C1615.5 1411.49 1617.51 1413.5 1620 1413.5C1622.49 1413.5 1624.5 1411.49 1624.5 1409V1199C1624.5 1196.51 1622.49 1194.5 1620 1194.5C1617.51 1194.5 1615.5 1196.51 1615.5 1199V1409Z" fill="url(#paint4_linear)" fill-opacity="0.1"/>
<path fill-rule="evenodd" clip-rule="evenodd" d="M1405 254.5C1405 256.985 1407.01 259 1409.5 259C1411.99 259 1414 256.985 1414 254.5V44.5C1414 42.0147 1411.99 40 1409.5 40C1407.01 40 1405 42.0147 1405 44.5V254.5ZM1420 241.5C1420 243.985 1422.01 246 1424.5 246C1426.99 246 1429 243.985 1429 241.5V31.5C1429 29.0147 1426.99 27 1424.5 27C1422.01 27 1420 29.0147 1420 31.5V241.5ZM1439.5 233C1437.01 233 1435 230.985 1435 228.5V17.5C1435 15.0147 1437.01 13 1439.5 13C1441.99 13 1444 15.0147 1444 17.5V228.5C1444 230.985 1441.99 233 1439.5 233ZM1450 214.5C1450 216.985 1452.01 219 1454.5 219C1456.99 219 1459 216.985 1459 214.5V4.5C1459 2.01471 1456.99 0 1454.5 0C1452.01 0 1450 2.01471 1450 4.5V214.5Z" fill="url(#paint5_linear)" fill-opacity="0.1"/>
<defs>
<linearGradient id="paint0_linear" x1="-88.5022" y1="249.966" x2="70.8001" y2="513.686" gradientUnits="userSpaceOnUse">
<stop offset="0.0542822" stop-color="#1C8AFF"/>
<stop offset="1" stop-color="#8A4FEB"/>
</linearGradient>
<linearGradient id="paint1_linear" x1="-88.5022" y1="1064.97" x2="70.8001" y2="1328.69" gradientUnits="userSpaceOnUse">
<stop offset="0.0542822" stop-color="#1C8AFF"/>
<stop offset="1" stop-color="#8A4FEB"/>
</linearGradient>
<linearGradient id="paint2_linear" x1="2008.5" y1="596.966" x2="1849.2" y2="860.686" gradientUnits="userSpaceOnUse">
<stop offset="0.0542822" stop-color="#1C8AFF"/>
<stop offset="1" stop-color="#8A4FEB"/>
</linearGradient>
<linearGradient id="paint3_linear" x1="157" y1="890" x2="263.5" y2="944" gradientUnits="userSpaceOnUse">
<stop stop-color="#0A5BBA"/>
<stop offset="1" stop-color="#23DAE6"/>
</linearGradient>
<linearGradient id="paint4_linear" x1="1570.5" y1="1430.5" x2="1624.5" y2="1324" gradientUnits="userSpaceOnUse">
<stop stop-color="#8A4FEB"/>
<stop offset="1" stop-color="#0ED59B"/>
</linearGradient>
<linearGradient id="paint5_linear" x1="1405" y1="236" x2="1459" y2="129.5" gradientUnits="userSpaceOnUse">
<stop stop-color="#FD44E7"/>
<stop offset="1" stop-color="#4955FC"/>
</linearGradient>
</defs>
</svg>
